<?xml version="1.0" encoding="UTF-8"?>
<svg width="19px" height="43px" viewBox="0 0 19 43" version="1.1" xmlns="http://www.w3.org/2000/svg" xmlns:xlink="http://www.w3.org/1999/xlink">
    <!-- Generator: Sketch 49.1 (51147) - http://www.bohemiancoding.com/sketch -->
    <title>standing-up-man- (1)</title>
    <desc>Created with Sketch.</desc>
    <defs></defs>
    <g id="Отправка-на-скоринг" stroke="none" stroke-width="1" fill="none" fill-rule="evenodd">
        <g id="Payment" transform="translate(-536.000000, -376.000000)" fill="#A4A2B0">
            <g id="Mark" transform="translate(400.000000, 324.000000)">
                <g id="Group-3" transform="translate(44.000000, 52.000000)">
                    <g id="standing-up-man--(1)" transform="translate(92.000000, 0.000000)">
                        <path d="M12.586,3.77 C12.586,5.762 10.973,7.375 8.98,7.375 C6.992,7.375 5.375,5.762 5.375,3.77 C5.375,1.778 6.992,0.164 8.98,0.164 C10.973,0.164 12.586,1.778 12.586,3.77 Z" id="Fill-1"></path>
                        <path d="M10.238,9.094 C9.34,8.91 8.363,8.922 7.48,9.129 C1.484,9.832 -0.461,16.77 0.09,22.059 C0.328,24.348 3.934,24.371 3.691,22.059 C3.492,20.133 3.578,17.223 4.602,15.153 L4.602,22.696 C4.602,22.781 4.609,22.867 4.613,22.953 C4.613,22.992 4.602,23.028 4.602,23.067 C4.602,29.051 4.594,35.031 4.344,41.012 C4.234,43.668 8.355,43.656 8.465,41.012 C8.66,36.324 8.707,31.637 8.719,26.949 C8.914,26.961 9.109,26.961 9.305,26.949 C9.316,31.637 9.363,36.328 9.555,41.012 C9.664,43.656 13.785,43.668 13.676,41.012 C13.43,35.031 13.422,29.051 13.422,23.067 C13.422,22.883 13.395,22.715 13.359,22.551 C13.352,19.953 13.254,17.356 13.281,14.758 C14.512,16.836 14.621,20.004 14.41,22.059 C14.168,24.367 17.773,24.344 18.012,22.059 C18.574,16.656 16.535,9.539 10.238,9.094 Z" id="Fill-3"></path>
                    </g>
                </g>
            </g>
        </g>
    </g>
</svg>
