<?xml version="1.0" encoding="UTF-8"?>
<svg width="21px" height="21px" viewBox="0 0 21 21" version="1.1" xmlns="http://www.w3.org/2000/svg" xmlns:xlink="http://www.w3.org/1999/xlink">
    <!-- Generator: Sketch 49.2 (51160) - http://www.bohemiancoding.com/sketch -->
    <title>ic/24/Bitcointalk</title>
    <desc>Created with Sketch.</desc>
    <defs>
        <path d="M20.3125,10.3125 C20.3125,15.8353629 15.8353629,20.3125 10.3125,20.3125 C4.7896371,20.3125 0.3125,15.8353629 0.3125,10.3125 C0.3125,4.7896371 4.7896371,0.3125 10.3125,0.3125 C15.8353629,0.3125 20.3125,4.7896371 20.3125,10.3125 Z M14.6007661,8.88790323 C14.7998387,7.55729839 13.7866129,6.84197581 12.4011694,6.36479839 L12.8506048,4.56229839 L11.7533065,4.28887097 L11.3157661,6.04387097 C11.0272984,5.97197581 10.7310081,5.90419355 10.4366129,5.83701613 L10.8772984,4.07048387 L9.78060484,3.79705645 L9.3308871,5.59891129 C9.09209677,5.54451613 8.85770161,5.49076613 8.63020161,5.43423387 L8.63145161,5.42858871 L7.11814516,5.05076613 L6.82625,6.22262097 C6.82625,6.22262097 7.64040323,6.40919355 7.62322581,6.42072581 C8.06766129,6.53165323 8.14798387,6.82572581 8.13451613,7.05883065 L7.62258065,9.11225806 C7.65322581,9.12008065 7.69290323,9.13133065 7.73665323,9.14883065 C7.70008065,9.13975806 7.66100806,9.12975806 7.62068548,9.12008065 L6.90310484,11.9966129 C6.84870968,12.1316129 6.7108871,12.3341129 6.40024194,12.2572581 C6.41116935,12.2731855 5.60266129,12.0581855 5.60266129,12.0581855 L5.05790323,13.3141129 L6.4858871,13.6700403 C6.75153226,13.7366129 7.01189516,13.8062903 7.26814516,13.8718952 L6.81403226,15.695 L7.91008065,15.9684274 L8.35979839,14.1646774 C8.65046573,14.2434523 8.94197463,14.3190884 9.23427419,14.3915726 L8.78608871,16.1868548 L9.8833871,16.4602823 L10.3375,14.6406048 C12.208629,14.9946774 13.6156855,14.8518548 14.2079032,13.1596774 C14.6851613,11.7971774 14.1841532,11.01125 13.1996774,10.49875 C13.9166129,10.3335081 14.4566935,9.86197581 14.6007661,8.88790323 Z M12.093629,12.4031855 C11.7545161,13.7656855 9.46024194,13.0291129 8.71641129,12.8444355 L9.31899194,10.4291532 C10.0627823,10.6147581 12.4480242,10.9822581 12.093629,12.4031855 Z M12.4330242,8.86822581 C12.123629,10.1075806 10.2140323,9.47790323 9.59459677,9.32354839 L10.1408871,7.13294355 C10.7603629,7.28729839 12.7552419,7.57540323 12.4330242,8.86822581 Z" id="path-1"></path>
    </defs>
    <g id="Один-проект" stroke="none" stroke-width="1" fill="none" fill-rule="evenodd">
        <g id="About_project" transform="translate(-344.000000, -1263.000000)">
            <g id="ic/24/Bitcointalk" transform="translate(342.000000, 1261.000000)">
                <g transform="translate(2.000000, 2.000000)" id="Icons/Brands/bitcoin">
                    <g>
                        <mask id="mask-2" fill="white">
                            <use xlink:href="#path-1"></use>
                        </mask>
                        <use id="bitcoin" fill="#231A5D" fill-rule="nonzero" xlink:href="#path-1"></use>
                    </g>
                </g>
            </g>
        </g>
    </g>
</svg>