<?xml version="1.0" encoding="UTF-8"?>
<svg width="20px" height="20px" viewBox="0 0 20 20" version="1.1" xmlns="http://www.w3.org/2000/svg" xmlns:xlink="http://www.w3.org/1999/xlink">
    <!-- Generator: Sketch 49 (51002) - http://www.bohemiancoding.com/sketch -->
    <title>ic/24/Bitcointalk</title>
    <desc>Created with Sketch.</desc>
    <defs>
        <path d="M21.6875,12 C21.6875,17.3502734 17.3502734,21.6875 12,21.6875 C6.64972656,21.6875 2.3125,17.3502734 2.3125,12 C2.3125,6.64972656 6.64972656,2.3125 12,2.3125 C17.3502734,2.3125 21.6875,6.64972656 21.6875,12 Z M16.1542578,10.6199219 C16.3471094,9.33089844 15.3655469,8.63792969 14.0233984,8.17566406 L14.4587891,6.42949219 L13.3957813,6.16460937 L12.9719141,7.86476562 C12.6924609,7.79511719 12.4054297,7.72945312 12.1202344,7.664375 L12.5471484,5.95304687 L11.4847266,5.68816406 L11.0490625,7.43371094 C10.8177344,7.38101562 10.5906641,7.32894531 10.3702734,7.27417969 L10.3714844,7.26871094 L8.90546875,6.90269531 L8.62269531,8.03792969 C8.62269531,8.03792969 9.41140625,8.21867187 9.39476563,8.22984375 C9.8253125,8.33730469 9.903125,8.6221875 9.89007813,8.84800781 L9.39414063,10.8372656 C9.42382812,10.8448437 9.46226563,10.8557422 9.50464844,10.8726953 C9.46921875,10.8639062 9.43136719,10.8542187 9.39230469,10.8448437 L8.69714844,13.6314844 C8.64445313,13.7622656 8.5109375,13.9584375 8.21,13.8839844 C8.22058594,13.8994141 7.43734375,13.6911328 7.43734375,13.6911328 L6.90960938,14.9078125 L8.29296875,15.2526172 C8.5503125,15.3171094 8.80253906,15.3846094 9.05078125,15.4481641 L8.61085938,17.2142969 L9.67265625,17.4791797 L10.1083203,15.7317969 C10.3899043,15.80811 10.6723036,15.8813825 10.9554688,15.9516016 L10.5212891,17.6907812 L11.5842969,17.9556641 L12.0242188,16.1928516 C13.836875,16.5358594 15.1999609,16.3975 15.7736719,14.7582031 C16.2360156,13.4382812 15.7506641,12.6769141 14.7969531,12.1804297 C15.4914844,12.0203516 16.0146875,11.5635547 16.1542578,10.6199219 Z M13.7254687,14.0253516 C13.3969531,15.3452734 11.174375,14.6317187 10.4537891,14.4528125 L11.0375391,12.1130078 C11.7580859,12.2928125 14.0687891,12.6488281 13.7254687,14.0253516 Z M14.0542578,10.6008594 C13.7545312,11.8014844 11.9046094,11.1914844 11.3045312,11.0419531 L11.83375,8.91980469 C12.4338672,9.06933594 14.3664062,9.3484375 14.0542578,10.6008594 Z" id="path-1"></path>
    </defs>
    <g id="Один-проект" stroke="none" stroke-width="1" fill="none" fill-rule="evenodd">
        <g id="About_project" transform="translate(-344.000000, -1263.000000)">
            <g id="ic/24/Bitcointalk" transform="translate(342.000000, 1261.000000)">
                <g id="Icons/Brands/bitcoin">
                    <g>
                        <mask id="mask-2" fill="white">
                            <use xlink:href="#path-1"></use>
                        </mask>
                        <use id="bitcoin" fill="#231A5D" fill-rule="nonzero" xlink:href="#path-1"></use>
                    </g>
                </g>
            </g>
        </g>
    </g>
</svg>