<?xml version="1.0" encoding="UTF-8"?>
<svg width="20px" height="20px" viewBox="0 0 20 20" version="1.1" xmlns="http://www.w3.org/2000/svg" xmlns:xlink="http://www.w3.org/1999/xlink">
    <!-- Generator: Sketch 49 (51002) - http://www.bohemiancoding.com/sketch -->
    <title>ic/24/Fb</title>
    <desc>Created with Sketch.</desc>
    <defs></defs>
    <g id="Один-проект" stroke="none" stroke-width="1" fill="none" fill-rule="evenodd">
        <g id="About_project" transform="translate(-84.000000, -1230.000000)">
            <g id="ic/24/Fb" transform="translate(82.000000, 1228.000000)">
                <g>
                    <path d="M12,22 C6.4771525,22 2,17.5228475 2,12 C2,6.4771525 6.4771525,2 12,2 C17.5228475,2 22,6.4771525 22,12 C22,17.5228475 17.5228475,22 12,22 Z M10.6035354,17.8333333 L12.9772727,17.8333333 L12.9772727,12.6152344 L14.8358586,12.6152344 L15.1313131,10.5416667 L12.9772727,10.5416667 L12.9772727,9.11295573 C12.9772727,8.51367188 13.1616162,8.10351563 14.1161616,8.10351563 L15.3333333,8.10351563 L15.3333333,6.24869792 C15.1237374,6.22363281 14.4015152,6.16666667 13.5606061,6.16666667 C11.8055556,6.16666667 10.6035354,7.1328125 10.6035354,8.9078776 L10.6035354,10.5416667 L8.66666667,10.5416667 L8.66666667,12.6152344 L10.6035354,12.6152344 L10.6035354,17.8333333 Z" id="Combined-Shape" fill="#231A5D"></path>
                    <rect id="Rectangle-4" fill-opacity="0" fill="#D8D8D8" x="0" y="0" width="24" height="24"></rect>
                </g>
            </g>
        </g>
    </g>
</svg>