<?xml version="1.0" encoding="UTF-8"?>
<svg width="21px" height="19px" viewBox="0 0 21 19" version="1.1" xmlns="http://www.w3.org/2000/svg" xmlns:xlink="http://www.w3.org/1999/xlink">
    <!-- Generator: Sketch 49.2 (51160) - http://www.bohemiancoding.com/sketch -->
    <title>ic/24/Github</title>
    <desc>Created with Sketch.</desc>
    <defs></defs>
    <g id="Один-проект" stroke="none" stroke-width="1" fill="none" fill-rule="evenodd">
        <g id="About_project" transform="translate(-642.000000, -1266.000000)">
            <g id="ic/24/Github" transform="translate(640.000000, 1264.000000)">
                <g>
                    <path d="M8.72814437,17.2987722 C8.72814437,17.3773483 8.6348669,17.4402092 8.51725618,17.4402092 C8.38342329,17.4519957 8.29014582,17.3891348 8.29014582,17.2987722 C8.29014582,17.2201961 8.38342329,17.1573352 8.50103401,17.1573352 C8.62270027,17.1455488 8.72814437,17.2084097 8.72814437,17.2987722 Z M7.46687077,17.1219759 C7.43848198,17.2005521 7.51959282,17.2909146 7.64125908,17.3144874 C7.74670318,17.3537755 7.86836944,17.3144874 7.89270269,17.2359113 C7.91703595,17.1573352 7.83998065,17.0669726 7.71831438,17.0316134 C7.61287029,17.0041117 7.49525957,17.0433998 7.46687077,17.1219759 Z M9.25942039,17.0551862 C9.14180966,17.0826879 9.06069882,17.1573352 9.07286545,17.2476977 C9.08503208,17.3262739 9.19047617,17.3773483 9.31214243,17.3498467 C9.42975315,17.3223451 9.510864,17.2476977 9.49869737,17.1691216 C9.48653074,17.0944743 9.37703111,17.0433998 9.25942039,17.0551862 Z M11.9279671,2 C6.30293018,2 2,6.13703316 2,11.5862877 C2,15.943334 4.8307684,19.6717713 8.87414389,20.9839926 C9.39325328,21.0743552 9.57575267,20.7639795 9.57575267,20.5086071 C9.57575267,20.2650211 9.56358604,18.9213693 9.56358604,18.0963199 C9.56358604,18.0963199 6.72470656,18.6856409 6.12854187,16.9255356 C6.12854187,16.9255356 5.66621007,15.7822529 5.00110117,15.4875925 C5.00110117,15.4875925 4.07238202,14.8707698 5.06598984,14.8825563 C5.06598984,14.8825563 6.07581983,14.9611324 6.6314291,15.8961883 C7.51959282,17.4127076 9.00797677,16.9766101 9.5879193,16.7173089 C9.68119677,16.0886998 9.944807,15.6526023 10.236806,15.3933011 C7.96975799,15.1497151 5.68243224,14.8314818 5.68243224,11.05197 C5.68243224,9.97154823 5.99065344,9.42937295 6.63954018,8.73790302 C6.53409608,8.4825306 6.189375,7.42961048 6.74498427,6.07024346 C7.59259258,5.81487104 9.54330833,7.13102119 9.54330833,7.13102119 C10.3544168,6.91100803 11.2263583,6.79707264 12.0901888,6.79707264 C12.9540193,6.79707264 13.8259608,6.91100803 14.6370692,7.13102119 C14.6370692,7.13102119 16.587785,5.81094223 17.4353933,6.07024346 C17.9910026,7.43353928 17.6462815,8.4825306 17.5408374,8.73790302 C18.1897241,9.43330175 18.5871673,9.97547704 18.5871673,11.05197 C18.5871673,14.8432682 16.1984529,15.1457863 13.9314049,15.3933011 C14.3045148,15.7036768 14.6208471,16.2929978 14.6208471,17.2162673 C14.6208471,18.540275 14.6086804,20.1785873 14.6086804,20.5007495 C14.6086804,20.7561219 14.7952354,21.0664976 15.3102892,20.976135 C19.3658313,19.6717713 22.1154889,15.943334 22.1154889,11.5862877 C22.1154889,6.13703316 17.553004,2 11.9279671,2 Z M5.94198694,15.5504534 C5.88926489,15.5897414 5.90143151,15.680104 5.97037573,15.7547513 C6.0352644,15.8176122 6.12854187,15.8451138 6.18126392,15.7940394 C6.23398597,15.7547513 6.22181934,15.6643887 6.15287513,15.5897414 C6.08798645,15.5268805 5.99470898,15.4993789 5.94198694,15.5504534 Z M5.50398839,15.23222 C5.47559959,15.2832945 5.51615501,15.3461554 5.59726586,15.3854435 C5.66215453,15.4247316 5.74326537,15.4129451 5.77165417,15.3579418 C5.80004296,15.3068674 5.75948754,15.2440065 5.6783767,15.2047184 C5.59726586,15.1811456 5.53237718,15.192932 5.50398839,15.23222 Z M6.81798403,16.6308751 C6.75309536,16.6819496 6.77742861,16.7998138 6.87070608,16.8744611 C6.96398355,16.9648237 7.08159427,16.9766101 7.13431632,16.9137492 C7.18703837,16.8626747 7.16270511,16.7448105 7.08159427,16.6701632 C6.99237234,16.5798006 6.87070608,16.5680142 6.81798403,16.6308751 Z M6.35565223,16.0533406 C6.42054091,16.0022661 6.525985,16.0415542 6.58276259,16.1319167 C6.64765126,16.2222793 6.64765126,16.3244282 6.58276259,16.3755027 C6.53004054,16.4147908 6.42054091,16.3755027 6.35565223,16.2851402 C6.29076356,16.1947776 6.29076356,16.0926286 6.35565223,16.0533406 Z" id="Combined-Shape" fill="#231A5D" fill-rule="nonzero"></path>
                    <rect id="Rectangle-4" fill-opacity="0" fill="#D8D8D8" x="0" y="0" width="24" height="24"></rect>
                </g>
            </g>
        </g>
    </g>
</svg>