<?xml version="1.0" encoding="UTF-8"?>
<svg width="20px" height="20px" viewBox="0 0 20 20" version="1.1" xmlns="http://www.w3.org/2000/svg" xmlns:xlink="http://www.w3.org/1999/xlink">
    <!-- Generator: Sketch 49.2 (51160) - http://www.bohemiancoding.com/sketch -->
    <title>ic/24/Instagram</title>
    <desc>Created with Sketch.</desc>
    <defs></defs>
    <g id="Один-проект" stroke="none" stroke-width="1" fill="none" fill-rule="evenodd">
        <g id="About_project" transform="translate(-84.000000, -1302.000000)">
            <g id="ic/24/Instagram" transform="translate(82.000000, 1300.000000)">
                <g>
                    <path d="M12,22 C6.4771525,22 2,17.5228475 2,12 C2,6.4771525 6.4771525,2 12,2 C17.5228475,2 22,6.4771525 22,12 C22,17.5228475 17.5228475,22 12,22 Z M17.2131065,9.89453125 C17.173285,9.0764974 16.9812047,8.35188802 16.3651422,7.75488281 C15.7514222,7.1578776 15.0065254,6.97102865 14.1655884,6.93001302 C13.2988846,6.88216146 10.7011154,6.88216146 9.8344116,6.93001302 C8.99581707,6.96875 8.25092025,7.15559896 7.63485778,7.75260417 C7.01879532,8.34960937 6.82905745,9.07421875 6.78689347,9.8922526 C6.73770218,10.7353516 6.73770218,13.2623698 6.78689347,14.1054687 C6.826715,14.9235026 7.01879532,15.648112 7.63485778,16.2451172 C8.25092025,16.8421224 8.99347462,17.0289714 9.8344116,17.069987 C10.7011154,17.1178385 13.2988846,17.1178385 14.1655884,17.069987 C15.0065254,17.03125 15.7514222,16.844401 16.3651422,16.2451172 C16.9788622,15.648112 17.1709426,14.9235026 17.2131065,14.1054687 C17.2622978,13.2623698 17.2622978,10.7376302 17.2131065,9.89453125 Z M16.0934189,15.0100911 C15.9107083,15.4567057 15.5569994,15.8007812 15.0955382,15.9807943 C14.4045176,16.2473958 12.7648076,16.1858724 12.0011712,16.1858724 C11.2375349,16.1858724 9.59548243,16.2451172 8.90680424,15.9807943 C8.44768544,15.8030599 8.09397658,15.4589844 7.90892359,15.0100911 C7.63485778,14.3378906 7.69810374,12.7428385 7.69810374,12 C7.69810374,11.2571615 7.63720022,9.65983073 7.90892359,8.98990885 C8.09163413,8.54329427 8.445343,8.19921875 8.90680424,8.01920573 C9.59782487,7.75260417 11.2375349,7.8141276 12.0011712,7.8141276 C12.7648076,7.8141276 14.40686,7.75488281 15.0955382,8.01920573 C15.554657,8.1969401 15.9083659,8.54101562 16.0934189,8.98990885 C16.3674847,9.66210937 16.3042387,11.2571615 16.3042387,12 C16.3042387,12.7428385 16.3674847,14.3401693 16.0934189,15.0100911 Z M12.0011712,9.38183594 C10.5113776,9.38183594 9.30970441,10.5507812 9.30970441,12 C9.30970441,13.4492188 10.5113776,14.6181641 12.0011712,14.6181641 C13.4909649,14.6181641 14.692638,13.4492188 14.692638,12 C14.692638,10.5507812 13.4909649,9.38183594 12.0011712,9.38183594 Z M12.0011712,13.7021484 C11.0384272,13.7021484 10.2513664,12.9388021 10.2513664,12 C10.2513664,11.0611979 11.0360848,10.2978516 12.0011712,10.2978516 C12.9662577,10.2978516 13.750976,11.0611979 13.750976,12 C13.750976,12.9388021 12.9639152,13.7021484 12.0011712,13.7021484 Z M15.4305075,9.27473958 C15.4305075,8.9375 15.1494144,8.6640625 14.8027328,8.6640625 C14.4560513,8.6640625 14.1749582,8.9375 14.1749582,9.27473958 C14.1749582,9.61197917 14.4537089,9.88541667 14.8027328,9.88541667 C15.1494144,9.88541667 15.4305075,9.61425781 15.4305075,9.27473958 Z" id="Combined-Shape" fill="#231A5D"></path>
                    <rect id="Rectangle-4" fill-opacity="0" fill="#D8D8D8" x="0" y="0" width="24" height="24"></rect>
                </g>
            </g>
        </g>
    </g>
</svg>