<?xml version="1.0" encoding="UTF-8"?>
<svg width="20px" height="20px" viewBox="0 0 20 20" version="1.1" xmlns="http://www.w3.org/2000/svg" xmlns:xlink="http://www.w3.org/1999/xlink">
    <!-- Generator: Sketch 49 (51002) - http://www.bohemiancoding.com/sketch -->
    <title>ic/24/Instagram</title>
    <desc>Created with Sketch.</desc>
    <defs>
        <path d="M7.00117122,4.38183594 C5.51137758,4.38183594 4.30970441,5.55078125 4.30970441,7 C4.30970441,8.44921875 5.51137758,9.61816406 7.00117122,9.61816406 C8.49096486,9.61816406 9.69263804,8.44921875 9.69263804,7 C9.69263804,5.55078125 8.49096486,4.38183594 7.00117122,4.38183594 Z M7.00117122,8.70214844 C6.03842722,8.70214844 5.25136642,7.93880208 5.25136642,7 C5.25136642,6.06119792 6.03608477,5.29785156 7.00117122,5.29785156 C7.96625767,5.29785156 8.75097602,6.06119792 8.75097602,7 C8.75097602,7.93880208 7.96391523,8.70214844 7.00117122,8.70214844 Z M10.4305075,4.27473958 C10.4305075,4.61425781 10.1494144,4.88541667 9.80273285,4.88541667 C9.45370887,4.88541667 9.17495817,4.61197917 9.17495817,4.27473958 C9.17495817,3.9375 9.45605131,3.6640625 9.80273285,3.6640625 C10.1494144,3.6640625 10.4305075,3.9375 10.4305075,4.27473958 Z M12.2131065,4.89453125 C12.173285,4.0764974 11.9812047,3.35188802 11.3651422,2.75488281 C10.7514222,2.1578776 10.0065254,1.97102865 9.1655884,1.93001302 C8.29888455,1.88216146 5.70111545,1.88216146 4.8344116,1.93001302 C3.99581707,1.96875 3.25092025,2.15559896 2.63485778,2.75260417 C2.01879532,3.34960937 1.82905745,4.07421875 1.78689347,4.8922526 C1.73770218,5.73535156 1.73770218,8.26236979 1.78689347,9.10546875 C1.826715,9.9235026 2.01879532,10.648112 2.63485778,11.2451172 C3.25092025,11.8421224 3.99347462,12.0289714 4.8344116,12.069987 C5.70111545,12.1178385 8.29888455,12.1178385 9.1655884,12.069987 C10.0065254,12.03125 10.7514222,11.844401 11.3651422,11.2451172 C11.9788622,10.648112 12.1709426,9.9235026 12.2131065,9.10546875 C12.2622978,8.26236979 12.2622978,5.73763021 12.2131065,4.89453125 Z M11.0934189,10.0100911 C10.9107083,10.4567057 10.5569994,10.8007812 10.0955382,10.9807943 C9.40451757,11.2473958 7.76480759,11.1858724 7.00117122,11.1858724 C6.23753486,11.1858724 4.59548243,11.2451172 3.90680424,10.9807943 C3.44768544,10.8030599 3.09397658,10.4589844 2.90892359,10.0100911 C2.63485778,9.33789062 2.69810374,7.74283854 2.69810374,7 C2.69810374,6.25716146 2.63720022,4.65983073 2.90892359,3.98990885 C3.09163413,3.54329427 3.445343,3.19921875 3.90680424,3.01920573 C4.59782487,2.75260417 6.23753486,2.8141276 7.00117122,2.8141276 C7.76480759,2.8141276 9.40686001,2.75488281 10.0955382,3.01920573 C10.554657,3.1969401 10.9083659,3.54101562 11.0934189,3.98990885 C11.3674847,4.66210937 11.3042387,6.25716146 11.3042387,7 C11.3042387,7.74283854 11.3674847,9.34016927 11.0934189,10.0100911 Z" id="path-1"></path>
    </defs>
    <g id="Один-проект" stroke="none" stroke-width="1" fill="none" fill-rule="evenodd">
        <g id="About_project" transform="translate(-84.000000, -1302.000000)">
            <g id="ic/24/Instagram" transform="translate(82.000000, 1300.000000)">
                <g>
                    <circle id="Oval" fill="#231A5D" cx="12" cy="12" r="10"></circle>
                    <g id="Icons/Brands/instagram" transform="translate(5.000000, 5.000000)">
                        <mask id="mask-2" fill="white">
                            <use xlink:href="#path-1"></use>
                        </mask>
                        <use id="instagram" fill="#000000" fill-rule="nonzero" xlink:href="#path-1"></use>
                        <g id="Colors/5th" mask="url(#mask-2)" fill="#FFFFFF" fill-rule="evenodd">
                            <rect id="Rectangle" x="0" y="0" width="14" height="14"></rect>
                        </g>
                    </g>
                    <rect id="Rectangle-4" fill-opacity="0" fill="#D8D8D8" x="0" y="0" width="24" height="24"></rect>
                </g>
            </g>
        </g>
    </g>
</svg>