<?xml version="1.0" encoding="UTF-8"?>
<svg width="20px" height="20px" viewBox="0 0 20 20" version="1.1" xmlns="http://www.w3.org/2000/svg" xmlns:xlink="http://www.w3.org/1999/xlink">
    <!-- Generator: Sketch 49 (51002) - http://www.bohemiancoding.com/sketch -->
    <title>ic/24/Linkedin</title>
    <desc>Created with Sketch.</desc>
    <defs></defs>
    <g id="Один-проект" stroke="none" stroke-width="1" fill="none" fill-rule="evenodd">
        <g id="About_project" transform="translate(-942.000000, -1266.000000)">
            <g id="ic/24/Linkedin" transform="translate(940.000000, 1264.000000)">
                <g>
                    <circle id="Oval" fill="#231A5D" cx="12" cy="12" r="10"></circle>
                    <path d="M9.23833966,16.7222222 L7.16514171,16.7222222 L7.16514171,10.2313368 L9.23833966,10.2313368 L9.23833966,16.7222222 Z M8.20062486,9.34592014 C7.53782638,9.34592014 7,8.81206597 7,8.16753472 C7,7.52300347 7.53782638,7 8.20062486,7 C8.86342334,7 9.40124972,7.52300347 9.40124972,8.16753472 C9.40124972,8.81206597 8.86342334,9.34592014 8.20062486,9.34592014 Z M16.9977684,16.7222222 L14.9290337,16.7222222 L14.9290337,13.5625 C14.9290337,12.8094618 14.9134122,11.84375 13.8511493,11.84375 C12.7732649,11.84375 12.6081232,12.6618924 12.6081232,13.5082465 L12.6081232,16.7222222 L10.5371569,16.7222222 L10.5371569,10.2313368 L12.5255523,10.2313368 L12.5255523,11.1167535 L12.5545637,11.1167535 C12.8312877,10.6067708 13.507476,10.0685764 14.5161794,10.0685764 C16.6139255,10.0685764 17,11.4118924 17,13.156684 L17,16.7222222 L16.9977684,16.7222222 Z" id="Mask" fill="#FFFFFF" fill-rule="nonzero"></path>
                    <rect id="Rectangle-4" fill-opacity="0" fill="#D8D8D8" x="0" y="0" width="24" height="24"></rect>
                </g>
            </g>
        </g>
    </g>
</svg>