<?xml version="1.0" encoding="UTF-8"?>
<svg width="20px" height="20px" viewBox="0 0 20 20" version="1.1" xmlns="http://www.w3.org/2000/svg" xmlns:xlink="http://www.w3.org/1999/xlink">
    <!-- Generator: Sketch 49 (51002) - http://www.bohemiancoding.com/sketch -->
    <title>ic/24/Medium</title>
    <desc>Created with Sketch.</desc>
    <defs></defs>
    <g id="Один-проект" stroke="none" stroke-width="1" fill="none" fill-rule="evenodd">
        <g id="About_project" transform="translate(-642.000000, -1230.000000)">
            <g id="ic/24/Medium" transform="translate(640.000000, 1228.000000)">
                <g>
                    <circle id="Oval" fill="#231A5D" cx="12" cy="12" r="10"></circle>
                    <path d="M7.42154228,8.94252636 C7.43642754,8.79615464 7.37936738,8.64978292 7.27020881,8.55054786 L6.15133347,7.200951 L6.15133347,7 L9.62952243,7 L12.3187926,12.8970436 L14.683068,7 L18,7 L18,7.200951 L17.0423816,8.11887534 C16.9605127,8.18089725 16.9183378,8.28509407 16.9357039,8.38681001 L16.9357039,15.1347943 C16.9183378,15.2365102 16.9605127,15.340707 17.0423816,15.402729 L17.9776721,16.3206533 L17.9776721,16.5216043 L13.2714492,16.5216043 L13.2714492,16.3206533 L14.241472,15.3804011 C14.3357453,15.2861278 14.3357453,15.2563572 14.3357453,15.1124664 L14.3357453,9.65949969 L11.6390325,16.5042382 L11.2743436,16.5042382 L8.13851561,9.65949969 L8.13851561,14.2466405 C8.11122597,14.4401489 8.17572876,14.6336572 8.31217697,14.7725863 L9.57246227,16.3008063 L9.57246227,16.5017573 L6,16.5017573 L6,16.3032872 L7.2602853,14.7725863 C7.39425264,14.6336572 7.45627455,14.437668 7.42154228,14.2466405 L7.42154228,8.94252636 Z" id="medium-m" fill="#FFFFFF" fill-rule="nonzero"></path>
                    <rect id="Rectangle-4" fill-opacity="0" fill="#D8D8D8" x="0" y="0" width="24" height="24"></rect>
                </g>
            </g>
        </g>
    </g>
</svg>