<?xml version="1.0" encoding="UTF-8"?>
<svg width="20px" height="20px" viewBox="0 0 20 20" version="1.1" xmlns="http://www.w3.org/2000/svg" xmlns:xlink="http://www.w3.org/1999/xlink">
    <!-- Generator: Sketch 49.2 (51160) - http://www.bohemiancoding.com/sketch -->
    <title>ic/24/Reddit</title>
    <desc>Created with Sketch.</desc>
    <defs></defs>
    <g id="Один-проект" stroke="none" stroke-width="1" fill="none" fill-rule="evenodd">
        <g id="About_project" transform="translate(-642.000000, -1302.000000)">
            <g id="ic/24/Reddit" transform="translate(640.000000, 1300.000000)">
                <g>
                    <path d="M9.80241935,13.9959677 C9.24596774,13.9959677 8.7983871,13.5483871 8.7983871,13.0040323 C8.7983871,12.4475806 9.24596774,12 9.80241935,12 C10.3508065,12 10.7943548,12.4475806 10.7943548,13.0040323 C10.7943548,13.5524194 10.3467742,13.9959677 9.80241935,13.9959677 Z M22,12 C22,17.5241935 17.5241935,22 12,22 C6.47580645,22 2,17.5241935 2,12 C2,6.47580645 6.47580645,2 12,2 C17.5241935,2 22,6.47580645 22,12 Z M16.6653226,10.3387097 C16.2862903,10.3387097 15.9516129,10.4959677 15.7056452,10.7419355 C14.8024194,10.1169355 13.5846774,9.71370968 12.233871,9.66935484 L12.9354839,6.51209677 L15.1693548,7.01612903 C15.1693548,7.56451613 15.6169355,8.00806452 16.1612903,8.00806452 C16.7177419,8.00806452 17.1653226,7.55241935 17.1653226,7.00403226 C17.1653226,6.45564516 16.7177419,6 16.1612903,6 C15.7701613,6 15.4354839,6.23387097 15.2701613,6.55645161 L12.8024194,6.00806452 C12.6814516,5.97580645 12.5564516,6.06451613 12.5241935,6.18548387 L11.7540323,9.66935484 C10.4153226,9.72580645 9.20967742,10.125 8.30645161,10.75 C8.06048387,10.4919355 7.71370968,10.3387097 7.33467742,10.3387097 C5.92741935,10.3387097 5.46774194,12.2298387 6.75403226,12.8709677 C6.70967742,13.0725806 6.68548387,13.2822581 6.68548387,13.4959677 C6.68548387,15.6169355 9.07258065,17.3346774 12.0080645,17.3346774 C14.9556452,17.3346774 17.3427419,15.6169355 17.3427419,13.4959677 C17.3427419,13.2822581 17.3185484,13.0604839 17.266129,12.858871 C18.5282258,12.2137097 18.0645161,10.3387097 16.6653226,10.3387097 Z M13.8870968,15.0241935 C13.1532258,15.7580645 10.8185484,15.7459677 10.1129032,15.0241935 C10.0241935,14.9354839 9.86693548,14.9354839 9.77822581,15.0241935 C9.67741935,15.125 9.67741935,15.2822581 9.77822581,15.3709677 C10.6975806,16.2903226 13.2983871,16.2903226 14.2217742,15.3709677 C14.3225806,15.2822581 14.3225806,15.125 14.2217742,15.0241935 C14.1330645,14.9354839 13.9758065,14.9354839 13.8870968,15.0241935 Z M14.1975806,12 C13.6491935,12 13.2056452,12.4475806 13.2056452,13.0040323 C13.2056452,13.5524194 13.6532258,13.9959677 14.1975806,13.9959677 C14.7540323,13.9959677 15.2016129,13.5483871 15.2016129,13.0040323 C15.2016129,12.4475806 14.7580645,12 14.1975806,12 Z" id="reddit" fill="#231A5D" fill-rule="nonzero"></path>
                    <rect id="Rectangle-4" fill-opacity="0" fill="#D8D8D8" x="0" y="0" width="24" height="24"></rect>
                </g>
            </g>
        </g>
    </g>
</svg>