<?xml version="1.0" encoding="UTF-8"?>
<svg width="20px" height="20px" viewBox="0 0 20 20" version="1.1" xmlns="http://www.w3.org/2000/svg" xmlns:xlink="http://www.w3.org/1999/xlink">
    <!-- Generator: Sketch 49 (51002) - http://www.bohemiancoding.com/sketch -->
    <title>ic/24/Steemit</title>
    <desc>Created with Sketch.</desc>
    <defs></defs>
    <g id="Один-проект" stroke="none" stroke-width="1" fill="none" fill-rule="evenodd">
        <g id="About_project" transform="translate(-344.000000, -1299.000000)">
            <g id="ic/24/Steemit" transform="translate(342.000000, 1297.000000)">
                <g>
                    <circle id="Oval" fill="#231A5D" cx="12" cy="12" r="10"></circle>
                    <g id="steemit-seeklogo.com" transform="translate(6.000000, 6.000000)" fill="#FFFFFF" fill-rule="nonzero">
                        <path d="M1.71461934,1.29192969 C1.58932671,1.23264152 1.94225198e-06,2.47820854 1.94225198e-06,3.39459736 C-0.0021913644,4.64712431 1.85389431,7.48470742 2.1664405,8.58231182 C2.43539471,9.52370476 1.71023273,10.6535309 1.90954946,10.7048281 C2.09159391,10.8156712 3.82320944,9.15302484 3.89065361,8.44414462 C3.97756339,7.31534951 1.86869913,4.02382523 1.70063701,3.17394228 C1.5057069,2.18202549 1.85499097,1.31409831 1.71461934,1.29192969 Z" id="Shape"></path>
                        <path d="M5.6836717,0.00259614589 C5.52410859,-0.0728625697 3.49667088,1.51254308 3.49667088,2.68150932 C3.49447757,4.27721648 5.86132955,7.8927964 6.25968881,9.2899416 C6.60239297,10.4892973 5.67818841,11.9289363 5.930967,11.9933209 C6.16455417,12.1339368 8.37156886,10.0174872 8.45847867,9.11301276 C8.56978894,7.67543409 5.87942428,3.48245337 5.66530275,2.39795968 C5.41691081,1.1373098 5.86132955,0.0306678186 5.6836717,0.00259614589 Z" id="Shape"></path>
                        <path d="M9.7798597,1.29192969 C9.65566373,1.23264152 8.06524228,2.47820854 8.06524228,3.39459736 C8.06332317,4.64712431 9.91913466,7.48470742 10.231955,8.58231182 C10.5006351,9.52370476 9.77574727,10.6535309 9.97478981,10.7048281 C10.157931,10.8156712 11.8898206,9.15302484 11.9561681,8.44414462 C12.0428037,7.31534951 9.93421364,4.02382523 9.76587736,3.17394228 C9.57122142,2.18202549 9.92023134,1.31409831 9.7798597,1.29192969 Z" id="Shape"></path>
                    </g>
                    <rect id="Rectangle-4" fill-opacity="0" fill="#D8D8D8" x="0" y="0" width="24" height="24"></rect>
                </g>
            </g>
        </g>
    </g>
</svg>