<?xml version="1.0" encoding="UTF-8"?>
<svg width="20px" height="20px" viewBox="0 0 20 20" version="1.1" xmlns="http://www.w3.org/2000/svg" xmlns:xlink="http://www.w3.org/1999/xlink">
    <!-- Generator: Sketch 49.2 (51160) - http://www.bohemiancoding.com/sketch -->
    <title>ic/24/Steemit</title>
    <desc>Created with Sketch.</desc>
    <defs></defs>
    <g id="Один-проект" stroke="none" stroke-width="1" fill="none" fill-rule="evenodd">
        <g id="About_project" transform="translate(-344.000000, -1299.000000)">
            <g id="ic/24/Steemit" transform="translate(342.000000, 1297.000000)">
                <g>
                    <path d="M12,22 C6.4771525,22 2,17.5228475 2,12 C2,6.4771525 6.4771525,2 12,2 C17.5228475,2 22,6.4771525 22,12 C22,17.5228475 17.5228475,22 12,22 Z M7.71461934,7.29192969 C7.58932671,7.23264152 6.00000194,8.47820854 6.00000194,9.39459736 C5.99780864,10.6471243 7.85389431,13.4847074 8.1664405,14.5823118 C8.43539471,15.5237048 7.71023273,16.6535309 7.90954946,16.7048281 C8.09159391,16.8156712 9.82320944,15.1530248 9.89065361,14.4441446 C9.97756339,13.3153495 7.86869913,10.0238252 7.70063701,9.17394228 C7.5057069,8.18202549 7.85499097,7.31409831 7.71461934,7.29192969 Z M11.6836717,6.00259615 C11.5241086,5.92713743 9.49667088,7.51254308 9.49667088,8.68150932 C9.49447757,10.2772165 11.8613295,13.8927964 12.2596888,15.2899416 C12.602393,16.4892973 11.6781884,17.9289363 11.930967,17.9933209 C12.1645542,18.1339368 14.3715689,16.0174872 14.4584787,15.1130128 C14.5697889,13.6754341 11.8794243,9.48245337 11.6653027,8.39795968 C11.4169108,7.1373098 11.8613295,6.03066782 11.6836717,6.00259615 Z M15.7798597,7.29192969 C15.6556637,7.23264152 14.0652423,8.47820854 14.0652423,9.39459736 C14.0633232,10.6471243 15.9191347,13.4847074 16.231955,14.5823118 C16.5006351,15.5237048 15.7757473,16.6535309 15.9747898,16.7048281 C16.157931,16.8156712 17.8898206,15.1530248 17.9561681,14.4441446 C18.0428037,13.3153495 15.9342136,10.0238252 15.7658774,9.17394228 C15.5712214,8.18202549 15.9202313,7.31409831 15.7798597,7.29192969 Z" id="Combined-Shape" fill="#231A5D"></path>
                    <g id="steemit-seeklogo.com" transform="translate(6.000000, 6.000000)"></g>
                    <rect id="Rectangle-4" fill-opacity="0" fill="#D8D8D8" x="0" y="0" width="24" height="24"></rect>
                </g>
            </g>
        </g>
    </g>
</svg>