<?xml version="1.0" encoding="UTF-8"?>
<svg width="20px" height="20px" viewBox="0 0 20 20" version="1.1" xmlns="http://www.w3.org/2000/svg" xmlns:xlink="http://www.w3.org/1999/xlink">
    <!-- Generator: Sketch 49 (51002) - http://www.bohemiancoding.com/sketch -->
    <title>ic/24/Twitter</title>
    <desc>Created with Sketch.</desc>
    <defs>
        <path d="M9.97208984,3.96319336 C9.9784375,4.05202148 9.9784375,4.14086914 9.9784375,4.22969727 C9.9784375,6.93907227 7.91626953,10.0609082 4.14722656,10.0609082 C2.98605469,10.0609082 1.90738281,9.72459961 1.00001953,9.14086914 C1.165,9.15989258 1.32361328,9.16624023 1.49494141,9.16624023 C2.45304687,9.16624023 3.33503906,8.84264648 4.03935547,8.29061523 C3.13833984,8.27157227 2.38326172,7.68147461 2.12310547,6.86928711 C2.25001953,6.88831055 2.37691406,6.90100586 2.51017578,6.90100586 C2.69417969,6.90100586 2.87820312,6.87561523 3.04951172,6.8312207 C2.11042969,6.64084961 1.40609375,5.81598633 1.40609375,4.81979492 L1.40609375,4.79442383 C1.67892578,4.94670898 1.99621094,5.04188477 2.33248047,5.05456055 C1.78044922,4.6865332 1.41878906,4.05836914 1.41878906,3.34770508 C1.41878906,2.96700195 1.52029297,2.61801758 1.69796875,2.31344727 C2.70685547,3.55709961 4.22335937,4.36926758 5.92384766,4.45811523 C5.89212891,4.30583008 5.87308594,4.1472168 5.87308594,3.98858398 C5.87308594,2.85913086 6.78679687,1.9390918 7.92257813,1.9390918 C8.51267578,1.9390918 9.04566406,2.18655273 9.42003906,2.58629883 C9.88322266,2.4974707 10.3273828,2.32614258 10.7208008,2.09137695 C10.5684961,2.56727539 10.2449023,2.96702148 9.81978516,3.22081055 C10.2322266,3.17641602 10.6319727,3.06217773 10.9999805,2.90356445 C10.7208398,3.30963867 10.3718359,3.67129883 9.97208984,3.96319336 Z" id="path-1"></path>
    </defs>
    <g id="Один-проект" stroke="none" stroke-width="1" fill="none" fill-rule="evenodd">
        <g id="About_project" transform="translate(-84.000000, -1266.000000)">
            <g id="Twitter" transform="translate(82.000000, 1264.000000)">
                <g>
                    <circle id="Oval" fill="#231A5D" cx="12" cy="12" r="10"></circle>
                    <g id="Icons/Brands/twitter" transform="translate(6.000000, 6.000000)">
                        <mask id="mask-2" fill="white">
                            <use xlink:href="#path-1"></use>
                        </mask>
                        <use id="twitter" fill="#000000" fill-rule="nonzero" xlink:href="#path-1"></use>
                        <g id="Colors/5th" mask="url(#mask-2)" fill="#FFFFFF" fill-rule="evenodd">
                            <rect id="Rectangle" x="0" y="0" width="12" height="12"></rect>
                        </g>
                    </g>
                    <rect id="Rectangle-4" fill-opacity="0" fill="#D8D8D8" x="0" y="0" width="24" height="24"></rect>
                </g>
            </g>
        </g>
    </g>
</svg>