<?xml version="1.0" encoding="UTF-8"?>
<svg width="20px" height="20px" viewBox="0 0 20 20" version="1.1" xmlns="http://www.w3.org/2000/svg" xmlns:xlink="http://www.w3.org/1999/xlink">
    <!-- Generator: Sketch 49.2 (51160) - http://www.bohemiancoding.com/sketch -->
    <title>ic/24/Twitter</title>
    <desc>Created with Sketch.</desc>
    <defs></defs>
    <g id="Один-проект" stroke="none" stroke-width="1" fill="none" fill-rule="evenodd">
        <g id="About_project" transform="translate(-84.000000, -1266.000000)">
            <g id="Twitter" transform="translate(82.000000, 1264.000000)">
                <g>
                    <path d="M12,22 C6.4771525,22 2,17.5228475 2,12 C2,6.4771525 6.4771525,2 12,2 C17.5228475,2 22,6.4771525 22,12 C22,17.5228475 17.5228475,22 12,22 Z M15.9720898,9.96319336 C16.3718359,9.67129883 16.7208398,9.30963867 16.9999805,8.90356445 C16.6319727,9.06217773 16.2322266,9.17641602 15.8197852,9.22081055 C16.2449023,8.96702148 16.5684961,8.56727539 16.7208008,8.09137695 C16.3273828,8.32614258 15.8832227,8.4974707 15.4200391,8.58629883 C15.0456641,8.18655273 14.5126758,7.9390918 13.9225781,7.9390918 C12.7867969,7.9390918 11.8730859,8.85913086 11.8730859,9.98858398 C11.8730859,10.1472168 11.8921289,10.3058301 11.9238477,10.4581152 C10.2233594,10.3692676 8.70685547,9.55709961 7.69796875,8.31344727 C7.52029297,8.61801758 7.41878906,8.96700195 7.41878906,9.34770508 C7.41878906,10.0583691 7.78044922,10.6865332 8.33248047,11.0545605 C7.99621094,11.0418848 7.67892578,10.946709 7.40609375,10.7944238 L7.40609375,10.8197949 C7.40609375,11.8159863 8.11042969,12.6408496 9.04951172,12.8312207 C8.87820313,12.8756152 8.69417969,12.9010059 8.51017578,12.9010059 C8.37691406,12.9010059 8.25001953,12.8883105 8.12310547,12.8692871 C8.38326172,13.6814746 9.13833984,14.2715723 10.0393555,14.2906152 C9.33503906,14.8426465 8.45304688,15.1662402 7.49494141,15.1662402 C7.32361328,15.1662402 7.165,15.1598926 7.00001953,15.1408691 C7.90738281,15.7245996 8.98605469,16.0609082 10.1472266,16.0609082 C13.9162695,16.0609082 15.9784375,12.9390723 15.9784375,10.2296973 C15.9784375,10.1408691 15.9784375,10.0520215 15.9720898,9.96319336 Z" id="Combined-Shape" fill="#231A5D"></path>
                    <rect id="Rectangle-4" fill-opacity="0" fill="#D8D8D8" x="0" y="0" width="24" height="24"></rect>
                </g>
            </g>
        </g>
    </g>
</svg>