<?xml version="1.0" encoding="UTF-8"?>
<svg width="20px" height="20px" viewBox="0 0 20 20" version="1.1" xmlns="http://www.w3.org/2000/svg" xmlns:xlink="http://www.w3.org/1999/xlink">
    <!-- Generator: Sketch 49.2 (51160) - http://www.bohemiancoding.com/sketch -->
    <title>ic/24/Youtube</title>
    <desc>Created with Sketch.</desc>
    <defs></defs>
    <g id="Один-проект" stroke="none" stroke-width="1" fill="none" fill-rule="evenodd">
        <g id="About_project" transform="translate(-942.000000, -1230.000000)">
            <g id="ic/24/Youtube" transform="translate(940.000000, 1228.000000)">
                <g>
                    <path d="M12,22 C6.4771525,22 2,17.5228475 2,12 C2,6.4771525 6.4771525,2 12,2 C17.5228475,2 22,6.4771525 22,12 C22,17.5228475 17.5228475,22 12,22 Z M16.5426215,9.68114648 C16.4335764,9.26542383 16.1122917,8.93801367 15.7043576,8.82690234 C14.9649479,8.625 12,8.625 12,8.625 C12,8.625 9.03506944,8.625 8.29564236,8.82690234 C7.88770833,8.93803125 7.56642361,9.26542383 7.45737847,9.68114648 C7.25925347,10.434668 7.25925347,12.0068203 7.25925347,12.0068203 C7.25925347,12.0068203 7.25925347,13.5789727 7.45737847,14.3324941 C7.56642361,14.7482168 7.88770833,15.0619863 8.29564236,15.1730977 C9.03506944,15.375 12,15.375 12,15.375 C12,15.375 14.9649306,15.375 15.7043576,15.1730977 C16.1122917,15.0619863 16.4335764,14.7482168 16.5426215,14.3324941 C16.7407465,13.5789727 16.7407465,12.0068203 16.7407465,12.0068203 C16.7407465,12.0068203 16.7407465,10.434668 16.5426215,9.68114648 Z M11.0302951,13.4342168 L11.0302951,10.5794238 L13.5084028,12.0068555 L11.0302951,13.4342168 Z" id="Combined-Shape" fill="#231A5D"></path>
                    <g id="Icons/Brands/youtube" transform="translate(7.000000, 8.000000)"></g>
                    <rect id="Rectangle-4" fill-opacity="0" fill="#D8D8D8" x="0" y="0" width="24" height="24"></rect>
                </g>
            </g>
        </g>
    </g>
</svg>