<?xml version="1.0" encoding="UTF-8"?>
<svg width="24px" height="24px" viewBox="0 0 24 24" version="1.1" xmlns="http://www.w3.org/2000/svg" xmlns:xlink="http://www.w3.org/1999/xlink">
    <!-- Generator: Sketch 49 (51002) - http://www.bohemiancoding.com/sketch -->
    <title>search/36</title>
    <desc>Created with Sketch.</desc>
    <defs></defs>
    <g id="Главная" stroke="none" stroke-width="1" fill="none" fill-rule="evenodd">
        <g id="Главная_SV" transform="translate(-66.000000, -226.000000)">
            <g id="60/input" transform="translate(40.000000, 208.000000)">
                <g id="search/36" transform="translate(20.000000, 12.000000)">
                    <path d="M16.5,27 C10.71,27 6,22.29 6,16.5 C6,10.71 10.71,6 16.5,6 C22.29,6 27,10.71 27,16.5 C27,22.29 22.29,27 16.5,27 L16.5,27 Z M16.5,7.5 C11.5367095,7.5 7.5,11.5367095 7.5,16.5 C7.5,21.4617888 11.5367095,25.5 16.5,25.5 C21.4632905,25.5 25.5,21.4617888 25.5,16.5 C25.5,11.5367095 21.4632905,7.5 16.5,7.5 L16.5,7.5 Z" id="Fill-1" fill="#BEBEBE"></path>
                    <polyline id="Fill-2" fill="#BEBEBE" points="28.9816593 30 22.5 23.5183407 23.5183407 22.5 30 28.9816593 28.9816593 30"></polyline>
                    <rect id="Rectangle-2" fill-opacity="0" fill="#D8D8D8" x="0" y="0" width="36" height="36"></rect>
                </g>
            </g>
        </g>
    </g>
</svg>