<?xml version="1.0" encoding="UTF-8"?>
<svg width="148px" height="148px" viewBox="0 0 148 148" version="1.1" xmlns="http://www.w3.org/2000/svg" xmlns:xlink="http://www.w3.org/1999/xlink">
    <!-- Generator: Sketch 49.1 (51147) - http://www.bohemiancoding.com/sketch -->
    <title>fireworks-2</title>
    <desc>Created with Sketch.</desc>
    <defs>
        <polygon id="path-1" points="0.021980198 0.358282947 147.641717 0.358282947 147.641717 147.999994 0.021980198 147.999994"></polygon>
    </defs>
    <g id="Авторизация" stroke="none" stroke-width="1" fill="none" fill-rule="evenodd">
        <g id="Welcome" transform="translate(-550.000000, -176.000000)">
            <g id="fireworks-2" transform="translate(550.000000, 176.000000)">
                <polyline id="Fill-1" fill="#FFD038" points="132.911765 64.7412587 126 64.8881119 128.352941 58.4265734 126 51.965035 132.764706 52.1118881 135.705882 49.9090909 138.352941 48 140.264706 54.4615385 143.352941 56.6643357 146 58.4265734 140.264706 62.3916084 138.352941 69 132.911765 64.7412587"></polyline>
                <path d="M138.897727,59.5714286 L142,57.5714286 L138.897727,55.5714286 C138.454545,55.2857143 138.159091,54.8571429 138.011364,54.2857143 L136.977273,51 L134.022727,53.1428571 C133.579545,53.4285714 133.136364,53.5714286 132.545455,53.5714286 L129,53.4285714 L130.181818,56.7142857 C130.329545,57.1428571 130.329545,57.7142857 130.181818,58.1428571 L129,61.5714286 L132.693182,61.4285714 C133.284091,61.4285714 133.727273,61.5714286 134.170455,61.8571429 L137.125,64 L138.159091,60.5714286 C138.159091,60.2857143 138.454545,59.8571429 138.897727,59.5714286" id="Fill-2" fill="#FFD038"></path>
                <polyline id="Fill-3" fill="#FFD038" points="119.899281 28.6408451 114 25.2394366 119.179856 20.9507042 119.179856 20.8028169 120.47482 14 126.086331 17.6971831 126.230216 17.6971831 132.848921 16.9577465 131.122302 23.4647887 132.705036 27.0140845 134 29.971831 127.23741 30.415493 122.345324 35 119.899281 28.6408451"></polyline>
                <path d="M123.488889,32 L126.088889,29.4408602 C126.522222,29.1397849 126.955556,28.8387097 127.388889,28.8387097 L131,28.5376344 L129.555556,25.0752688 C129.266667,24.6236559 129.266667,24.0215054 129.411111,23.4193548 L130.277778,19.9569892 L126.666667,20.4086022 C126.088889,20.4086022 125.511111,20.2580645 125.077778,19.9569892 L122.188889,18 L121.611111,21.9139785 C121.466667,22.516129 121.177778,22.9677419 120.744444,23.2688172 L118,25.6774194 L121.177778,27.483871 C121.611111,27.7849462 121.9,28.0860215 122.188889,28.688172 L123.488889,32" id="Fill-4" fill="#FFD038"></path>
                <polyline id="Fill-5" fill="#FFD038" points="89.5 20.6470588 82.9929577 23 83.1408451 16.0882353 79 10.6470588 85.6549296 8.73529412 89.5 3 93.3450704 8.73529412 100 10.6470588 95.8591549 16.0882353 96.0070423 23 89.5 20.6470588"></polyline>
                <path d="M93.5978261,20 L93.4565217,16.4137931 C93.4565217,15.816092 93.5978261,15.3678161 93.8804348,14.9195402 L96,11.9310345 L92.75,10.8850575 C92.1847826,10.7356322 91.7608696,10.4367816 91.4782609,9.98850575 L89.5,7 L87.5217391,9.98850575 C87.2391304,10.4367816 86.8152174,10.7356322 86.3913043,10.8850575 L83,11.9310345 L85.1195652,14.9195402 C85.4021739,15.3678161 85.5434783,15.816092 85.5434783,16.4137931 L85.5434783,20 L88.7934783,18.8045977 C89.2173913,18.6551724 89.7826087,18.6551724 90.2065217,18.8045977 L93.5978261,20" id="Fill-6" fill="#FFD038"></path>
                <polyline id="Fill-7" fill="#FFD038" points="53.6083916 140.264706 47 138.352941 51.1118881 132.911765 50.965035 126 57.4265734 128.352941 63.8881119 126 63.7412587 132.911765 68 138.352941 61.3916084 140.264706 57.4265734 146 53.6083916 140.264706"></polyline>
                <polyline id="Fill-8" fill="#FFD038" points="23.6126761 131.122302 16.9577465 132.848921 17.6971831 126.230216 17.6971831 126.086331 14 120.47482 20.8028169 119.179856 20.9507042 119.035971 25.2394366 114 28.6408451 119.899281 35 122.345324 30.415493 127.23741 29.971831 134 23.6126761 131.122302"></polyline>
                <polyline id="Fill-9" fill="#FFD038" points="7.73529412 94.4929577 4.79411765 92.2746479 2 90.5 7.73529412 86.6549296 9.64705882 80 15.0882353 84.1408451 22 83.9929577 19.6470588 90.5 22 97.0070423 15.2352941 96.8591549 12.2941176 99.0774648 9.64705882 101 7.73529412 94.4929577"></polyline>
                <polyline id="Fill-10" fill="#FFD038" points="23 24 67 31.8518519 30.8518519 68 23 24"></polyline>
                <polyline id="Fill-11" fill="#FFD038" points="42 57.3375796 61.3761468 38 74 50.5987261 44.3486239 61 42 57.3375796"></polyline>
                <polyline id="Fill-12" fill="#FFD038" points="38 62.45 73.64 50 82 58.4 46.36 71 38 62.45"></polyline>
                <polyline id="Fill-13" fill="#FFD038" points="47 71.45 82.64 59 91 67.55 55.36 80 47 71.45"></polyline>
                <polyline id="Fill-14" fill="#FFD038" points="55 82.3617021 90.6120401 70 99 78.4893617 63.3879599 91 55 82.3617021"></polyline>
                <g id="Group-18">
                    <mask id="mask-2" fill="white">
                        <use xlink:href="#path-1"></use>
                    </mask>
                    <g id="Clip-16"></g>
                    <path d="M63.416901,87.6603267 L100.636703,74.7652772 L100.197099,78.2821089 C100.050564,79.0147822 99.757495,79.6009208 99.3178911,80.0405248 L78.9495743,100.262307 L76.0188812,100.262307 L63.416901,87.6603267" id="Fill-15" fill="#F8CE44" mask="url(#mask-2)"></path>
                    <path d="M64.1495743,37.5454752 L118.513931,91.9098317 C119.393139,92.7890396 119.393139,94.1078515 118.513931,94.9870594 C117.634723,95.8662673 116.315911,95.8662673 115.436703,94.9870594 L101.369376,80.9197327 C101.222842,81.212802 101.076307,81.3593366 100.783238,81.5058713 L81.2941287,101.141515 L81.1475941,101.28805 C79.0961089,103.193 75.8723465,103.193 73.8208614,101.141515 L37.187198,64.5078515 L32.7911584,68.9038911 C31.9119505,69.783099 30.5931386,69.783099 29.7139307,68.9038911 C29.4208614,68.6108218 29.1277921,68.1712178 29.1277921,67.7316139 L25.3178911,45.8979505 L21.3614554,24.0642871 C21.2149208,22.8920099 21.9475941,21.7197327 23.1198713,21.4266634 C23.4129406,21.4266634 23.7060099,21.4266634 23.9990792,21.4266634 L67.6664059,29.3395347 C68.8386832,29.4860693 69.7178911,30.6583465 69.4248218,31.9771584 C69.2782871,32.4167624 69.1317525,32.8563663 68.8386832,33.1494356 L64.1495743,37.5454752 Z M130.236703,19.8147822 L126.573337,20.2543861 C125.987198,20.2543861 125.401059,20.1078515 124.961455,19.8147822 L122.030762,17.9098317 L121.444624,21.4266634 C121.298089,22.012802 121.00502,22.4524059 120.565416,22.7454752 L117.781257,25.0900297 L121.00502,26.8484455 C121.444624,27.1415149 121.737693,27.4345842 122.030762,28.0207228 L123.349574,31.3910198 L125.987198,28.8999307 C126.426802,28.6068614 126.866406,28.3137921 127.30601,28.3137921 L130.969376,28.0207228 L129.50403,24.6504257 C129.21096,24.2108218 129.21096,23.6246832 129.357495,23.0385446 L130.236703,19.8147822 Z M126.866406,15.7118119 L132.874327,14.9791386 C134.046604,14.832604 135.218881,15.7118119 135.365416,16.8840891 C135.365416,17.1771584 135.365416,17.4702277 135.365416,17.6167624 L133.900069,23.4781485 L136.391158,29.0464653 C136.977297,30.2187426 136.391158,31.5375545 135.365416,31.9771584 C135.072347,32.1236931 134.779277,32.1236931 134.486208,32.1236931 L128.331752,32.563297 L123.935713,36.6662673 C123.056505,37.5454752 121.591158,37.5454752 120.858485,36.6662673 C120.71195,36.5197327 120.418881,36.2266634 120.418881,35.9335941 L118.220861,30.2187426 L112.945614,27.2880495 C111.919871,26.7019109 111.480267,25.383099 112.066406,24.2108218 C112.212941,23.9177525 112.359475,23.7712178 112.652545,23.6246832 L117.341653,19.8147822 L118.513931,13.8068614 C118.660465,12.6345842 119.832743,11.7553762 121.00502,12.0484455 C121.298089,12.0484455 121.591158,12.1949802 121.737693,12.3415149 L126.866406,15.7118119 Z M111.626802,33.1494356 C112.50601,32.2702277 113.971356,32.4167624 114.70403,33.2959703 C115.583238,34.1751782 115.436703,35.6405248 114.557495,36.373198 L103.713931,45.8979505 C102.834723,46.7771584 101.369376,46.6306238 100.636703,45.7514158 C99.757495,44.8722079 99.9040297,43.4068614 100.783238,42.6741881 L111.626802,33.1494356 Z M141.519871,58.2068614 L138.442644,56.1553762 C138.00304,55.8623069 137.70997,55.422703 137.563436,54.8365644 L136.537693,51.4662673 L133.607,53.6642871 C133.167396,53.9573564 132.727792,54.1038911 132.141653,54.1038911 L128.624822,53.9573564 L129.797099,57.3276535 C129.943634,57.7672574 129.943634,58.353396 129.797099,58.793 L128.624822,62.3098317 L132.288188,62.163297 C132.874327,62.163297 133.313931,62.3098317 133.753535,62.602901 L136.684228,64.8009208 L137.70997,61.2840891 C137.856505,60.8444851 138.149574,60.4048812 138.589178,60.1118119 L141.519871,58.2068614 Z M141.666406,52.9316139 L146.648584,56.3019109 C147.674327,57.0345842 147.967396,58.353396 147.234723,59.3791386 C147.088188,59.6722079 146.941653,59.8187426 146.648584,59.9652772 L141.666406,63.3355743 L139.90799,69.0504257 C139.614921,70.222703 138.442644,70.9553762 137.270366,70.6623069 C136.977297,70.5157723 136.684228,70.5157723 136.537693,70.222703 L131.70205,66.5593366 L125.547594,66.8524059 C124.375317,66.8524059 123.349574,65.973198 123.349574,64.6543861 C123.349574,64.3613168 123.349574,64.0682475 123.496109,63.9217129 L125.547594,58.2068614 L123.496109,52.4920099 C123.056505,51.3197327 123.642644,50.0009208 124.668386,49.5613168 C124.961455,49.4147822 125.254525,49.4147822 125.547594,49.4147822 L131.70205,49.5613168 L136.537693,45.8979505 C137.563436,45.1652772 138.882248,45.3118119 139.614921,46.3375545 C139.761455,46.4840891 139.90799,46.7771584 140.054525,47.0702277 L141.666406,52.9316139 Z M118.660465,56.0088416 C119.832743,56.1553762 120.71195,57.1811188 120.565416,58.4999307 C120.418881,59.5256733 119.686208,60.2583465 118.660465,60.4048812 L104.300069,60.4048812 C103.127792,60.2583465 102.248584,59.232604 102.395119,57.9137921 C102.541653,56.8880495 103.274327,56.1553762 104.300069,56.0088416 L118.660465,56.0088416 Z M91.6980891,1.35141584 L95.0683861,6.33359406 L100.929772,8.0920099 C102.10205,8.38507921 102.834723,9.70389109 102.395119,10.8761683 C102.248584,11.1692376 102.248584,11.3157723 101.955515,11.6088416 L98.2921485,16.4444851 L98.4386832,22.5989406 C98.4386832,23.7712178 97.5594752,24.7969604 96.2406634,24.7969604 C95.9475941,24.7969604 95.6545248,24.7969604 95.3614554,24.6504257 L89.646604,22.5989406 L84.0782871,24.5038911 C82.9060099,24.943495 81.7337327,24.3573564 81.2941287,23.1850792 C81.1475941,23.0385446 81.1475941,22.7454752 81.1475941,22.4524059 L81.2941287,16.2979505 L77.6307624,11.4623069 C76.8980891,10.4365644 77.0446238,9.11775248 78.0703663,8.38507921 C78.3634356,8.23854455 78.5099703,8.0920099 78.8030396,7.94547525 L84.5178911,6.33359406 L87.8881881,1.35141584 C88.6208614,0.325673267 89.9396733,0.0326039604 90.9654158,0.765277228 C91.2584851,0.911811881 91.5515545,1.05834653 91.6980891,1.35141584 Z M91.8446238,9.55735644 L89.7931386,6.62666337 L87.7416535,9.55735644 C87.4485842,9.9969604 87.0089802,10.2900297 86.5693762,10.4365644 L83.0525446,11.4623069 L85.2505644,14.393 C85.5436337,14.832604 85.6901683,15.2722079 85.6901683,15.8583465 L85.5436337,19.3751782 L88.9139307,18.202901 C89.3535347,18.0563663 89.9396733,18.0563663 90.3792772,18.202901 L93.7495743,19.3751782 L93.6030396,15.8583465 C93.6030396,15.2722079 93.7495743,14.832604 94.0426436,14.393 L96.2406634,11.4623069 L92.8703663,10.4365644 C92.577297,10.2900297 92.1376931,9.85042574 91.8446238,9.55735644 Z M87.5951188,29.3395347 C87.7416535,28.1672574 88.767396,27.2880495 90.0862079,27.4345842 C91.1119505,27.5811188 91.8446238,28.3137921 91.9911584,29.3395347 L91.9911584,43.6999307 C91.8446238,44.8722079 90.8188812,45.7514158 89.5000693,45.6048812 C88.4743267,45.4583465 87.7416535,44.7256733 87.5951188,43.6999307 L87.5951188,29.3395347 Z M14.6208614,133.232604 L15.3535347,127.224683 L12.1297723,122.09597 C11.5436337,121.070228 11.836703,119.751416 12.8624455,119.018743 C13.1555149,118.872208 13.3020495,118.725673 13.5951188,118.725673 L19.6030396,117.553396 L23.4129406,112.864287 C24.1456139,111.985079 25.6109604,111.838545 26.4901683,112.571218 C26.636703,112.717752 26.9297723,113.010822 27.0763069,113.157356 L30.007,118.432604 L35.7218515,120.630624 C36.8941287,121.070228 37.4802673,122.38904 37.0406634,123.561317 C36.8941287,123.854386 36.7475941,124.147455 36.6010594,124.29399 L32.4980891,128.69003 L32.0584851,134.844485 C31.9119505,136.016762 30.8862079,137.042505 29.7139307,136.89597 C29.4208614,136.89597 29.1277921,136.749436 28.8347228,136.749436 L23.2664059,134.258347 L17.4050198,135.723693 C16.2327426,136.016762 15.0604653,135.284089 14.767396,134.111812 C14.6208614,133.672208 14.6208614,133.379139 14.6208614,133.232604 Z M19.7495743,126.931614 L19.3099703,130.59498 L22.6802673,129.715772 C23.2664059,129.569238 23.7060099,129.569238 24.2921485,129.862307 L27.6624455,131.327653 L27.9555149,127.664287 C27.9555149,127.078149 28.2485842,126.638545 28.5416535,126.345475 L31.0327426,123.707851 L27.6624455,122.38904 C27.2228416,122.242505 26.7832376,121.802901 26.4901683,121.363297 L24.7317525,118.139535 L22.5337327,120.777158 C22.2406634,121.216762 21.6545248,121.509832 21.2149208,121.656366 L17.5515545,122.535574 L19.456505,125.466267 C19.6030396,125.905871 19.8961089,126.345475 19.7495743,126.931614 Z M36.0149208,114.769238 C35.1357129,115.648446 33.816901,115.79498 32.9376931,114.915772 C32.0584851,114.036564 31.9119505,112.717752 32.7911584,111.838545 L42.3159109,100.99498 C43.1951188,100.115772 44.5139307,99.9692376 45.3931386,100.848446 C46.2723465,101.727653 46.4188812,103.046465 45.5396733,103.925673 L36.0149208,114.769238 Z M55.9436337,147.006861 L52.5733366,142.024683 L46.7119505,140.266267 C45.5396733,139.973198 44.807,138.654386 45.246604,137.482109 C45.3931386,137.18904 45.3931386,137.042505 45.6862079,136.749436 L49.3495743,131.913792 L49.2030396,125.759337 C49.2030396,124.587059 50.0822475,123.561317 51.4010594,123.561317 C51.6941287,123.561317 51.987198,123.561317 52.2802673,123.707851 L57.9951188,125.759337 L63.7099703,123.707851 C64.8822475,123.268248 66.0545248,123.854386 66.4941287,125.026663 C66.6406634,125.319733 66.6406634,125.612802 66.6406634,125.759337 L66.4941287,131.913792 L70.157495,136.749436 C70.8901683,137.775178 70.7436337,139.09399 69.7178911,139.826663 C69.4248218,139.973198 69.2782871,140.119733 68.9852178,140.266267 L63.2703663,142.024683 L59.9000693,147.006861 C59.167396,148.032604 57.8485842,148.325673 56.8228416,147.593 C56.3832376,147.446465 56.0901683,147.299931 55.9436337,147.006861 Z M55.797099,138.947455 L57.8485842,142.024683 L59.9000693,138.947455 C60.1931386,138.507851 60.6327426,138.214782 61.0723465,138.068248 L64.5891782,137.042505 L62.3911584,134.111812 C62.0980891,133.672208 61.9515545,133.232604 61.9515545,132.646465 L62.0980891,128.983099 L58.7277921,130.155376 C58.2881881,130.301911 57.7020495,130.301911 57.2624455,130.155376 L53.8921485,128.983099 L54.0386832,132.499931 C54.0386832,133.086069 53.8921485,133.525673 53.5990792,133.965277 L51.4010594,136.89597 L54.7713564,137.921713 C55.0644257,138.068248 55.5040297,138.361317 55.797099,138.947455 Z M60.046604,119.018743 C59.9000693,120.19102 58.8743267,121.070228 57.5555149,120.923693 C56.5297723,120.777158 55.797099,120.044485 55.6505644,119.018743 L55.6505644,104.658347 C55.797099,103.486069 56.8228416,102.606861 58.1416535,102.753396 C59.167396,102.899931 59.9000693,103.632604 60.046604,104.658347 L60.046604,119.018743 Z M6.12185149,90.1514158 L9.05254455,92.202901 C9.49214851,92.4959703 9.78521782,92.9355743 9.93175248,93.5217129 L10.957495,96.8920099 L13.8881881,94.6939901 C14.3277921,94.4009208 14.767396,94.2543861 15.3535347,94.2543861 L19.016901,94.4009208 L17.8446238,91.0306238 C17.6980891,90.5910198 17.6980891,90.0048812 17.8446238,89.5652772 L19.016901,86.0484455 L15.3535347,86.1949802 C14.767396,86.1949802 14.3277921,86.0484455 13.8881881,85.7553762 L10.957495,83.5573564 L9.93175248,87.0741881 C9.78521782,87.5137921 9.49214851,87.953396 9.05254455,88.2464653 L6.12185149,90.1514158 Z M5.97531683,95.4266634 L0.993138614,92.0563663 C-0.0326039604,91.3236931 -0.325673267,90.0048812 0.407,88.9791386 C0.553534653,88.6860693 0.700069307,88.5395347 0.993138614,88.393 L5.97531683,85.022703 L7.58719802,79.3078515 C7.88026733,78.1355743 9.05254455,77.402901 10.2248218,77.6959703 C10.5178911,77.842505 10.8109604,77.842505 10.957495,78.1355743 L15.7931386,81.7989406 L21.8010594,81.6524059 C22.9733366,81.6524059 23.9990792,82.5316139 23.9990792,83.8504257 C23.9990792,84.143495 23.9990792,84.4365644 23.8525446,84.583099 L21.8010594,90.2979505 L23.8525446,96.012802 C24.2921485,97.1850792 23.7060099,98.5038911 22.6802673,98.943495 C22.387198,99.0900297 22.0941287,99.0900297 21.8010594,99.0900297 L15.646604,98.943495 L10.8109604,102.606861 C9.78521782,103.339535 8.46640594,103.193 7.73373267,102.167257 C7.58719802,102.020723 7.44066337,101.727653 7.29412871,101.434584 L5.97531683,95.4266634 Z M28.9812574,92.3494356 C27.8089802,92.202901 26.9297723,91.1771584 27.0763069,89.8583465 C27.2228416,88.832604 27.9555149,88.0999307 28.9812574,87.953396 L43.3416535,87.953396 C44.5139307,88.0999307 45.3931386,89.1256733 45.246604,90.4444851 C45.1000693,91.4702277 44.367396,92.202901 43.3416535,92.3494356 L28.9812574,92.3494356 Z M63.856505,85.022703 L94.7753168,74.3256733 L89.9396733,69.4900297 L59.0208614,80.1870594 L63.856505,85.022703 Z M97.8525446,77.9890396 L67.3733366,88.5395347 L76.8980891,98.0642871 C77.0446238,98.2108218 77.3376931,98.3573564 77.4842277,98.3573564 C77.6307624,98.3573564 77.9238317,98.3573564 78.0703663,98.2108218 L97.7060099,78.5751782 C97.8525446,78.2821089 97.8525446,78.1355743 97.8525446,77.9890396 Z M55.5040297,76.6702277 L86.4228416,65.973198 L81.587198,61.1375545 L50.6683861,71.8345842 L55.5040297,76.6702277 Z M47.1515545,68.3177525 L78.0703663,57.6207228 L73.2347228,52.7850792 L42.3159109,63.4821089 L47.1515545,68.3177525 Z M43.3416535,58.353396 L69.7178911,49.2682475 L61.0723465,40.622703 L43.3416535,58.353396 Z M44.807,29.9256733 L26.0505644,26.5553762 L29.4208614,45.3118119 L32.6446238,62.8959703 L62.5376931,33.002901 L44.807,29.9256733 Z" id="Fill-17" fill="#231A5D" mask="url(#mask-2)"></path>
                </g>
            </g>
        </g>
    </g>
</svg>